<svg width="29" height="29" viewBox="0 0 29 29" fill="none" xmlns="http://www.w3.org/2000/svg">
<circle cx="14.1406" cy="14.1083" r="13.5" fill="white" stroke="#EBEBEB"/>
<path d="M15.1058 13.0789C14.5939 12.5331 13.8997 12.2264 13.1758 12.2264C12.452 12.2264 11.7578 12.5331 11.2458 13.0789L9.31519 15.1376C8.80324 15.6837 8.51562 16.4243 8.51562 17.1966C8.51562 17.9689 8.80324 18.7095 9.31519 19.2556C9.82714 19.8017 10.5215 20.1085 11.2455 20.1085C11.9695 20.1085 12.6639 19.8017 13.1758 19.2556L14.1408 18.2263" stroke="#063745" stroke-width="1.5" stroke-linecap="round" stroke-linejoin="round"/>
<path d="M13.1758 15.1376C13.6877 15.6834 14.3819 15.99 15.1058 15.99C15.8296 15.99 16.5238 15.6834 17.0358 15.1376L18.9664 13.0789C19.4784 12.5328 19.766 11.7922 19.766 11.0199C19.766 10.2476 19.4784 9.50698 18.9664 8.9609C18.4545 8.41482 17.7601 8.10803 17.0361 8.10803C16.3121 8.10803 15.6177 8.41482 15.1058 8.9609L14.1408 9.99023" stroke="#063745" stroke-width="1.5" stroke-linecap="round" stroke-linejoin="round"/>
</svg>
