<svg width="29" height="29" viewBox="0 0 29 29" fill="none" xmlns="http://www.w3.org/2000/svg">
<g clip-path="url(#clip0)">
<path fill-rule="evenodd" clip-rule="evenodd" d="M0.294922 14.1864C0.294922 21.1468 5.35009 26.9346 11.9616 28.1083V17.9968H8.46159V14.1083H11.9616V10.9968C11.9616 7.49678 14.2168 5.55311 17.4064 5.55311C18.4168 5.55311 19.5064 5.70828 20.5168 5.86344V9.44161H18.7283C17.0168 9.44161 16.6283 10.2968 16.6283 11.3864V14.1083H20.3616L19.7398 17.9968H16.6283V28.1083C23.2398 26.9346 28.2949 21.1479 28.2949 14.1864C28.2949 6.44328 21.9949 0.108276 14.2949 0.108276C6.59492 0.108276 0.294922 6.44328 0.294922 14.1864Z" fill="#395185"/>
</g>
<defs>
<clipPath id="clip0">
<rect width="28" height="28" fill="white" transform="translate(0.294922 0.108276)"/>
</clipPath>
</defs>
</svg>
