<svg width="60" height="60" viewBox="0 0 60 60" fill="none" xmlns="http://www.w3.org/2000/svg">
<g clip-path="url(#clip0)">
<path d="M56.8922 24.6584H51.3212C50.8355 24.6584 50.4423 25.0517 50.4423 25.5374C50.4423 26.023 50.8355 26.4163 51.3212 26.4163H56.8922C57.6365 26.4163 58.2422 27.0219 58.2422 27.7667V29.9557H55.2882C54.8025 29.9557 54.4093 30.3489 54.4093 30.8346C54.4093 31.3198 54.8025 31.7135 55.2882 31.7135H58.2422V41.1366L53.6586 42.3661H35.3105C34.8248 42.3661 34.4316 42.7593 34.4316 43.245C34.4316 43.7303 34.8248 44.1239 35.3105 44.1239H53.5931L58.2422 46.1285V48.8554C58.2422 49.6002 57.6365 50.2058 56.8922 50.2058H14.4236C13.6789 50.2058 13.0732 49.6002 13.0732 48.8554V40.7475H23.2782C23.7639 40.7475 24.1571 40.3538 24.1571 39.8686C24.1571 39.3829 23.7639 38.9897 23.2782 38.9897H13.0732V38.027C13.0732 37.5417 12.68 37.1481 12.1943 37.1481C11.7091 37.1481 11.3154 37.5417 11.3154 38.027V48.8554C11.3154 50.5692 12.7098 51.9636 14.4236 51.9636H56.8922C58.6056 51.9636 60 50.5692 60 48.8554V45.5503C60 45.1992 59.7912 44.882 59.469 44.7428L56.4441 43.4387L59.349 42.6595C59.7326 42.5561 60 42.2082 60 41.8104V27.7667C60 26.0528 58.6056 24.6584 56.8922 24.6584Z" fill="#046E32"/>
<path d="M48.6845 32.2836V11.1944C48.6845 9.48053 47.2906 8.08618 45.5768 8.08618H33.8036C33.7939 8.08618 33.7848 8.08618 33.7752 8.08618H19.5772C19.0915 8.08618 18.6983 8.47986 18.6983 8.96509C18.6983 9.45078 19.0915 9.84399 19.5772 9.84399H25.3674C26.0893 10.8218 26.9151 12.1607 27.2383 13.5079C27.5725 14.9009 27.2878 15.968 26.369 16.7709C25.0529 17.9199 23.1404 17.945 22.1169 17.859C19.893 17.6722 17.6175 17.0368 15.3529 15.9707C14.122 15.3907 12.9144 14.7251 11.6364 14.0211C8.67325 12.3878 5.62042 10.706 2.2522 10.1507C2.48566 9.95935 2.78366 9.84445 3.10822 9.84445H16.0616C16.5468 9.84445 16.9405 9.45078 16.9405 8.96555C16.9405 8.47986 16.5468 8.08664 16.0616 8.08664H3.10822C1.39435 8.08664 0 9.48053 0 11.1944V23.8951V23.9276V30.0039V30.0382V32.2836C0 33.9974 1.39435 35.3913 3.10822 35.3913H45.5768C47.2902 35.3913 48.6845 33.9974 48.6845 32.2836ZM46.9267 11.1944V20.7539C46.1389 21.7568 45.249 22.6898 44.2781 23.5311C40.751 26.5904 36.1157 28.5294 31.2263 28.9913C23.692 29.7 15.786 26.8893 7.99072 27.4107C5.75363 27.5613 3.62595 28.003 1.75781 28.7007V24.6275C2.49344 24.4819 3.24142 24.3551 3.98987 24.2498C10.2177 23.3695 16.4987 23.8021 22.3581 24.4004L22.6451 24.4302C24.4341 24.6142 26.2843 24.8042 28.141 24.6284C30.4358 24.4105 32.3891 23.6323 33.7885 22.3785C36.6055 19.8548 36.9017 15.8402 36.2402 12.9257C36.0146 11.9277 35.6689 10.9106 35.1929 9.84399H45.5768C46.3211 9.84399 46.9267 10.4496 46.9267 11.1944ZM14.604 17.5605C17.0586 18.7164 19.5369 19.4062 21.969 19.6104C22.2652 19.6356 22.5563 19.6479 22.8424 19.6479C24.7238 19.6475 26.364 19.1087 27.5253 18.0947C29.6851 16.2078 29.6548 13.252 27.4988 9.84399H33.2506C33.858 11.0731 34.2764 12.2125 34.5259 13.3138C35.2185 16.3648 34.4687 19.409 32.6157 21.0688C31.2035 22.3345 29.3124 22.7511 27.9749 22.8784C26.2912 23.0381 24.5293 22.8564 22.825 22.6815L22.5366 22.6518C16.5669 22.042 10.1582 21.603 3.74405 22.5089C3.07938 22.6028 2.4147 22.7126 1.75781 22.8367V11.8527C4.91592 12.3242 7.89688 13.9671 10.7881 15.5601C12.0337 16.2467 13.3223 16.9572 14.604 17.5605ZM1.75781 32.2836V30.5917C3.60306 29.8121 5.78568 29.3205 8.10837 29.1644C15.786 28.6498 23.4599 31.4866 31.3911 30.7414C36.6426 30.2451 41.6286 28.1564 45.4298 24.8596C45.9512 24.4077 46.4511 23.9312 46.9267 23.4332V32.2836C46.9267 33.0279 46.3211 33.6335 45.5768 33.6335H3.10822C2.36343 33.6335 1.75781 33.0279 1.75781 32.2836Z" fill="#046E32"/>
</g>
<defs>
<clipPath id="clip0">
<rect width="60" height="60" fill="white"/>
</clipPath>
</defs>
</svg>
