<svg width="15" height="17" viewBox="0 0 15 17" fill="none" xmlns="http://www.w3.org/2000/svg">
<path d="M14.0876 2.89516C14.0917 2.88285 14.0835 2.87055 14.0835 2.85824V0.720803C14.0917 0.503367 13.9194 0.318752 13.6978 0.310547C13.6937 0.310547 13.6896 0.310547 13.6855 0.310547H0.774772C0.557336 0.310547 0.376823 0.49106 0.380926 0.708496C0.380926 0.712598 0.380926 0.716701 0.380926 0.720803V2.85824C0.380926 2.87055 0.372721 2.88285 0.376823 2.89516C0.376823 2.89926 0.372721 2.90747 0.376823 2.91157C0.376823 2.91978 0.376823 2.92798 0.376823 2.93209C0.376823 2.94029 0.376823 2.94439 0.380926 2.9526C0.385029 2.9608 0.385029 2.96491 0.385029 2.96901C0.385029 2.97311 0.389131 2.98132 0.389131 2.98952C0.389131 2.99362 0.393234 3.00183 0.393234 3.00593C0.397336 3.01414 0.397336 3.01824 0.401439 3.02644C0.405541 3.03055 0.405541 3.03875 0.409644 3.04285C0.413746 3.04696 0.413746 3.05516 0.417849 3.05926C0.421952 3.06337 0.426054 3.07157 0.426054 3.07568C0.426054 3.07978 0.434259 3.08798 0.434259 3.09209C0.438362 3.09619 0.442464 3.10439 0.446567 3.1085C0.45067 3.1126 0.454772 3.1167 0.454772 3.1208C0.454772 3.1208 0.462977 3.1208 0.46708 3.12491L5.38605 8.90952V15.9003C5.38195 16.0562 5.46811 16.1998 5.6117 16.2695C5.66503 16.2941 5.72246 16.3105 5.784 16.3105C5.87836 16.3105 5.96862 16.2777 6.03836 16.2203L8.93477 13.8695C9.02913 13.7916 9.08246 13.6726 9.07836 13.5495V8.90952L13.9932 3.12491C13.9932 3.12491 13.9973 3.12491 14.0014 3.1208C14.0055 3.1167 14.0096 3.1126 14.0137 3.1085C14.0178 3.10439 14.022 3.09619 14.0261 3.09209C14.0302 3.08798 14.0343 3.07978 14.0384 3.07568C14.0425 3.07157 14.0466 3.06337 14.0466 3.05926C14.0507 3.05516 14.0548 3.04696 14.0548 3.04285C14.0589 3.03875 14.0589 3.03055 14.063 3.02644C14.0671 3.01824 14.0671 3.01414 14.0712 3.00593C14.0753 3.00183 14.0753 2.99362 14.0753 2.98952C14.0794 2.98132 14.0794 2.97721 14.0794 2.96901C14.0794 2.9608 14.0835 2.9567 14.0835 2.9526C14.0835 2.9485 14.0876 2.94029 14.0876 2.93209C14.0876 2.92388 14.0917 2.91568 14.0917 2.91157C14.0917 2.90747 14.0835 2.89926 14.0876 2.89516ZM8.36452 8.49106C8.29887 8.56491 8.26195 8.65926 8.25785 8.75773V13.3526L6.20657 15.0388V8.75773C6.20246 8.65926 6.16554 8.56491 6.0999 8.49106L1.66093 3.26439H12.8035L8.36452 8.49106ZM13.263 2.44388H1.20144V1.13106H13.263V2.44388Z" fill="#333333"/>
</svg>
