<svg width="22" height="14" viewBox="0 0 22 14" fill="none" xmlns="http://www.w3.org/2000/svg">
<path d="M13.3265 7.54114C13.3265 7.11257 13.2818 6.78221 13.2193 6.45185H7.04074V8.70185H10.755C10.6032 9.65721 9.63002 11.5233 7.04074 11.5233C4.80859 11.5233 2.98717 9.67507 2.98717 7.38935C2.98717 5.10364 4.80859 3.25542 7.04074 3.25542C8.31752 3.25542 9.16574 3.80007 9.64788 4.26435L11.4247 2.55899C10.2818 1.48757 8.80859 0.844708 7.04074 0.844708C3.42467 0.844708 0.496094 3.77328 0.496094 7.38935C0.496094 11.0054 3.42467 13.934 7.04074 13.934C10.8175 13.934 13.3265 11.2822 13.3265 7.54114ZM21.0675 6.45185H19.2015V4.58578H17.3265V6.45185H15.4604V8.32685H17.3265V10.1929H19.2015V8.32685H21.0675V6.45185Z" fill="#555555"/>
</svg>
