<svg width="15" height="15" viewBox="0 0 15 15" fill="none" xmlns="http://www.w3.org/2000/svg">
<path d="M9.63895 7.38935C9.63895 8.64828 8.61217 9.67507 7.35324 9.67507C6.09431 9.67507 5.06752 8.64828 5.06752 7.38935C5.06752 6.13042 6.09431 5.10364 7.35324 5.10364C8.61217 5.10364 9.63895 6.13042 9.63895 7.38935ZM10.8711 7.38935C10.8711 5.44292 9.29967 3.87149 7.35324 3.87149C5.40681 3.87149 3.83538 5.44292 3.83538 7.38935C3.83538 9.33578 5.40681 10.9072 7.35324 10.9072C9.29967 10.9072 10.8711 9.33578 10.8711 7.38935ZM11.8354 3.72864C11.8354 3.27328 11.4693 2.90721 11.014 2.90721C10.5586 2.90721 10.1925 3.27328 10.1925 3.72864C10.1925 4.18399 10.5586 4.55007 11.014 4.55007C11.4693 4.55007 11.8354 4.18399 11.8354 3.72864ZM7.35324 1.76435C8.35324 1.76435 10.4961 1.68399 11.3979 2.04114C11.7104 2.16614 11.9425 2.31792 12.1836 2.55899C12.4247 2.80007 12.5765 3.03221 12.7015 3.34471C13.0586 4.24649 12.9782 6.38935 12.9782 7.38935C12.9782 8.38935 13.0586 10.5322 12.7015 11.434C12.5765 11.7465 12.4247 11.9786 12.1836 12.2197C11.9425 12.4608 11.7104 12.6126 11.3979 12.7376C10.4961 13.0947 8.35324 13.0144 7.35324 13.0144C6.35324 13.0144 4.21038 13.0947 3.30859 12.7376C2.99609 12.6126 2.76395 12.4608 2.52288 12.2197C2.28181 11.9786 2.13002 11.7465 2.00502 11.434C1.64788 10.5322 1.72824 8.38935 1.72824 7.38935C1.72824 6.38935 1.64788 4.24649 2.00502 3.34471C2.13002 3.03221 2.28181 2.80007 2.52288 2.55899C2.76395 2.31792 2.99609 2.16614 3.30859 2.04114C4.21038 1.68399 6.35324 1.76435 7.35324 1.76435ZM14.2104 7.38935C14.2104 6.44292 14.2193 5.50542 14.1657 4.55899C14.1122 3.46078 13.8622 2.48757 13.0586 1.68399C12.255 0.880423 11.2818 0.630423 10.1836 0.576852C9.23717 0.52328 8.29967 0.532208 7.35324 0.532208C6.40681 0.532208 5.46931 0.52328 4.52288 0.576852C3.42467 0.630423 2.45145 0.880423 1.64788 1.68399C0.844308 2.48757 0.594308 3.46078 0.540737 4.55899C0.487165 5.50542 0.496094 6.44292 0.496094 7.38935C0.496094 8.33578 0.487165 9.27328 0.540737 10.2197C0.594308 11.3179 0.844308 12.2911 1.64788 13.0947C2.45145 13.8983 3.42467 14.1483 4.52288 14.2019C5.46931 14.2554 6.40681 14.2465 7.35324 14.2465C8.29967 14.2465 9.23717 14.2554 10.1836 14.2019C11.2818 14.1483 12.255 13.8983 13.0586 13.0947C13.8622 12.2911 14.1122 11.3179 14.1657 10.2197C14.2193 9.27328 14.2104 8.33578 14.2104 7.38935Z" fill="#555555"/>
</svg>
