<svg width="29" height="29" viewBox="0 0 29 29" fill="none" xmlns="http://www.w3.org/2000/svg">
<path d="M18.9004 14.3092C18.9004 15.4695 18.4395 16.5823 17.619 17.4028C16.7985 18.2233 15.6857 18.6842 14.5254 18.6842C13.3651 18.6842 12.2523 18.2233 11.4318 17.4028C10.6113 16.5823 10.1504 15.4695 10.1504 14.3092C10.1504 14.0598 10.1766 13.8163 10.2218 13.58H8.69206V19.409C8.69206 19.8144 9.02018 20.1425 9.4256 20.1425H19.6266C19.8209 20.1422 20.0071 20.0647 20.1444 19.9272C20.2816 19.7896 20.3587 19.6033 20.3587 19.409V13.58H18.8289C18.8741 13.8163 18.9004 14.0598 18.9004 14.3092ZM14.5254 17.2259C14.9085 17.2258 15.2879 17.1502 15.6418 17.0035C15.9957 16.8568 16.3173 16.6418 16.5881 16.3709C16.8589 16.0999 17.0737 15.7782 17.2203 15.4242C17.3668 15.0702 17.4422 14.6909 17.4421 14.3077C17.442 13.9246 17.3664 13.5453 17.2197 13.1914C17.073 12.8374 16.858 12.5159 16.5871 12.245C16.3161 11.9742 15.9944 11.7594 15.6404 11.6129C15.2864 11.4663 14.907 11.391 14.5239 11.3911C13.7502 11.3913 13.0082 11.6988 12.4612 12.2461C11.9143 12.7933 11.6071 13.5355 11.6073 14.3092C11.6075 15.0829 11.915 15.8249 12.4623 16.3719C13.0095 16.9189 13.7516 17.2261 14.5254 17.2259ZM18.0254 11.2467H19.7739C19.8901 11.2467 20.0015 11.2007 20.0838 11.1187C20.1661 11.0366 20.2125 10.9254 20.2129 10.8092V9.06066C20.2129 8.94424 20.1666 8.83259 20.0843 8.75027C20.002 8.66795 19.8904 8.6217 19.7739 8.6217H18.0254C17.909 8.6217 17.7973 8.66795 17.715 8.75027C17.6327 8.83259 17.5864 8.94424 17.5864 9.06066V10.8092C17.5879 11.0498 17.7848 11.2467 18.0254 11.2467ZM14.5254 0.309204C10.8124 0.309204 7.2514 1.7842 4.6259 4.40971C2.00039 7.03522 0.525391 10.5962 0.525391 14.3092C0.525391 18.0222 2.00039 21.5832 4.6259 24.2087C7.2514 26.8342 10.8124 28.3092 14.5254 28.3092C16.3639 28.3092 18.1844 27.9471 19.883 27.2435C21.5815 26.54 23.1249 25.5087 24.4249 24.2087C25.7249 22.9087 26.7561 21.3653 27.4597 19.6668C28.1633 17.9682 28.5254 16.1477 28.5254 14.3092C28.5254 12.4707 28.1633 10.6502 27.4597 8.95164C26.7561 7.25308 25.7249 5.70973 24.4249 4.40971C23.1249 3.10969 21.5815 2.07846 19.883 1.37489C18.1844 0.671325 16.3639 0.309204 14.5254 0.309204ZM21.8171 19.9807C21.8171 20.8717 21.0879 21.6009 20.1968 21.6009H8.85393C7.96289 21.6009 7.23372 20.8717 7.23372 19.9807V8.63774C7.23372 7.7467 7.96289 7.01754 8.85393 7.01754H20.1968C21.0879 7.01754 21.8171 7.7467 21.8171 8.63774V19.9807Z" fill="#F7C78A"/>
<path d="M18.9004 14.3092C18.9004 15.4695 18.4395 16.5823 17.619 17.4028C16.7985 18.2233 15.6857 18.6842 14.5254 18.6842C13.3651 18.6842 12.2523 18.2233 11.4318 17.4028C10.6113 16.5823 10.1504 15.4695 10.1504 14.3092C10.1504 14.0598 10.1766 13.8163 10.2218 13.58H8.69206V19.409C8.69206 19.8144 9.02018 20.1425 9.4256 20.1425H19.6266C19.8209 20.1422 20.0071 20.0647 20.1444 19.9272C20.2816 19.7896 20.3587 19.6033 20.3587 19.409V13.58H18.8289C18.8741 13.8163 18.9004 14.0598 18.9004 14.3092ZM14.5254 17.2259C14.9085 17.2258 15.2879 17.1502 15.6418 17.0035C15.9957 16.8568 16.3173 16.6418 16.5881 16.3709C16.8589 16.0999 17.0737 15.7782 17.2203 15.4242C17.3668 15.0702 17.4422 14.6909 17.4421 14.3077C17.442 13.9246 17.3664 13.5453 17.2197 13.1914C17.073 12.8374 16.858 12.5159 16.5871 12.245C16.3161 11.9742 15.9944 11.7594 15.6404 11.6129C15.2864 11.4663 14.907 11.391 14.5239 11.3911C13.7502 11.3913 13.0082 11.6988 12.4612 12.2461C11.9143 12.7933 11.6071 13.5355 11.6073 14.3092C11.6075 15.0829 11.915 15.8249 12.4623 16.3719C13.0095 16.9189 13.7516 17.2261 14.5254 17.2259ZM18.0254 11.2467H19.7739C19.8901 11.2467 20.0015 11.2007 20.0838 11.1187C20.1661 11.0366 20.2125 10.9254 20.2129 10.8092V9.06066C20.2129 8.94424 20.1666 8.83259 20.0843 8.75027C20.002 8.66795 19.8904 8.6217 19.7739 8.6217H18.0254C17.909 8.6217 17.7973 8.66795 17.715 8.75027C17.6327 8.83259 17.5864 8.94424 17.5864 9.06066V10.8092C17.5879 11.0498 17.7848 11.2467 18.0254 11.2467ZM14.5254 0.309204C10.8124 0.309204 7.2514 1.7842 4.6259 4.40971C2.00039 7.03522 0.525391 10.5962 0.525391 14.3092C0.525391 18.0222 2.00039 21.5832 4.6259 24.2087C7.2514 26.8342 10.8124 28.3092 14.5254 28.3092C16.3639 28.3092 18.1844 27.9471 19.883 27.2435C21.5815 26.54 23.1249 25.5087 24.4249 24.2087C25.7249 22.9087 26.7561 21.3653 27.4597 19.6668C28.1633 17.9682 28.5254 16.1477 28.5254 14.3092C28.5254 12.4707 28.1633 10.6502 27.4597 8.95164C26.7561 7.25308 25.7249 5.70973 24.4249 4.40971C23.1249 3.10969 21.5815 2.07846 19.883 1.37489C18.1844 0.671325 16.3639 0.309204 14.5254 0.309204ZM21.8171 19.9807C21.8171 20.8717 21.0879 21.6009 20.1968 21.6009H8.85393C7.96289 21.6009 7.23372 20.8717 7.23372 19.9807V8.63774C7.23372 7.7467 7.96289 7.01754 8.85393 7.01754H20.1968C21.0879 7.01754 21.8171 7.7467 21.8171 8.63774V19.9807Z" fill="url(#paint0_linear)"/>
<defs>
<linearGradient id="paint0_linear" x1="19.4629" y1="1.66705" x2="11.1181" y2="26.5277" gradientUnits="userSpaceOnUse">
<stop stop-color="#5254D3"/>
<stop offset="0.336458" stop-color="#C93D96"/>
<stop offset="0.648575" stop-color="#ED735A"/>
<stop offset="1" stop-color="#F8D591"/>
</linearGradient>
</defs>
</svg>
