<svg width="16" height="16" viewBox="0 0 16 16" fill="none" xmlns="http://www.w3.org/2000/svg">
<path d="M6.18998 12.1629H2.53387C2.33394 12.1629 2.17188 12.325 2.17188 12.5249C2.17188 12.7248 2.33394 12.8869 2.53387 12.8869H6.18998C6.38991 12.8869 6.55197 12.7248 6.55197 12.5249C6.55197 12.325 6.38991 12.1629 6.18998 12.1629Z" fill="#252525"/>
<path d="M11.6548 12.1629H7.99871C7.79878 12.1629 7.63672 12.325 7.63672 12.5249C7.63672 12.7248 7.79878 12.8869 7.99871 12.8869H11.6548C11.8547 12.8869 12.0168 12.7248 12.0168 12.5249C12.0168 12.325 11.8547 12.1629 11.6548 12.1629Z" fill="#252525"/>
<path d="M11.656 3.11312H2.53387C2.33394 3.11312 2.17188 3.27519 2.17188 3.47512C2.17188 3.67504 2.33394 3.83711 2.53387 3.83711H11.656C11.8559 3.83711 12.018 3.67504 12.018 3.47512C12.018 3.27519 11.8559 3.11312 11.656 3.11312Z" fill="#252525"/>
<path d="M11.6548 8.07695H7.99871C7.79878 8.07695 7.63672 8.23902 7.63672 8.43895C7.63672 8.63888 7.79878 8.80095 7.99871 8.80095H11.6548C11.8547 8.80095 12.0168 8.63888 12.0168 8.43895C12.0168 8.23902 11.8547 8.07695 11.6548 8.07695Z" fill="#252525"/>
<path d="M6.18998 6.00002H2.53387C2.33394 6.00002 2.17188 6.16208 2.17188 6.36201V10.0181C2.17188 10.218 2.33394 10.3801 2.53387 10.3801H6.18998C6.38991 10.3801 6.55197 10.218 6.55197 10.0181V6.36201C6.55197 6.16208 6.38991 6.00002 6.18998 6.00002ZM5.82799 9.65612H2.89586V6.724H5.82799V9.65612Z" fill="#252525"/>
<path d="M15.276 2.75113H14.19V1.66516C14.19 1.26596 13.8653 0.941177 13.4661 0.941177H0.723982C0.324778 0.941177 0 1.26596 0 1.66516V13.2489C0 14.2469 0.811946 15.0588 1.80995 15.0588H14.19C15.1881 15.0588 16 14.2469 16 13.2489V3.47511C16 3.07591 15.6752 2.75113 15.276 2.75113ZM15.276 13.2489C15.276 13.8477 14.7889 14.3348 14.19 14.3348H1.80995C1.21115 14.3348 0.723982 13.8477 0.723982 13.2489V1.66516H13.4661V12.7059C13.4661 13.2049 13.872 13.6109 14.371 13.6109C14.5709 13.6109 14.733 13.4488 14.733 13.2489C14.733 13.0489 14.5709 12.8869 14.371 12.8869C14.2712 12.8869 14.19 12.8057 14.19 12.7059V3.47511H15.276V13.2489Z" fill="#252525"/>
</svg>
