<svg width="36" height="36" viewBox="0 0 36 36" fill="none" xmlns="http://www.w3.org/2000/svg">
<path d="M34.1625 26.1339V31.1339C34.1644 31.598 34.0693 32.0575 33.8833 32.4828C33.6974 32.9081 33.4246 33.2898 33.0826 33.6036C32.7406 33.9174 32.3368 34.1563 31.8971 34.305C31.4574 34.4537 30.9914 34.509 30.5291 34.4672C25.4005 33.9099 20.4741 32.1574 16.1458 29.3505C12.1189 26.7916 8.70471 23.3775 6.14582 19.3505C3.32912 15.0025 1.57622 10.0522 1.02915 4.90052C0.987504 4.43964 1.04228 3.97512 1.18999 3.53656C1.3377 3.098 1.5751 2.69501 1.8871 2.35323C2.19909 2.01145 2.57883 1.73837 3.00214 1.55139C3.42545 1.36441 3.88305 1.26763 4.34582 1.26719H9.34582C10.1547 1.25923 10.9388 1.54565 11.5521 2.07308C12.1654 2.6005 12.5659 3.33294 12.6792 4.13386C12.8902 5.73397 13.2816 7.30507 13.8458 8.81719C14.0701 9.41373 14.1186 10.062 13.9857 10.6853C13.8527 11.3086 13.5439 11.8807 13.0958 12.3339L10.9792 14.4505C13.3517 18.6231 16.8066 22.0779 20.9792 24.4505L23.0958 22.3339C23.549 21.8858 24.1211 21.5769 24.7443 21.444C25.3676 21.3111 26.0159 21.3596 26.6125 21.5839C28.1246 22.1481 29.6957 22.5395 31.2958 22.7505C32.1054 22.8647 32.8448 23.2725 33.3734 23.8964C33.9019 24.5202 34.1828 25.3165 34.1625 26.1339Z" stroke="#046E32" stroke-width="2" stroke-linecap="round" stroke-linejoin="round"/>
</svg>
