<svg width="20" height="20" viewBox="0 0 20 20" fill="none" xmlns="http://www.w3.org/2000/svg">
<path d="M9.9 10.65C9.95833 10.6417 10.0333 10.6417 10.1 10.65C11.5667 10.6 12.7333 9.4 12.7333 7.925C12.7333 6.41667 11.5167 5.19167 10 5.19167C8.49166 5.19167 7.26666 6.41667 7.26666 7.925C7.275 9.4 8.43333 10.6 9.9 10.65Z" stroke="#929292" stroke-width="1.3" stroke-linecap="round" stroke-linejoin="round"/>
<path d="M4.38333 16.15C5.86667 17.5083 7.83333 18.3333 10 18.3333C12.1667 18.3333 14.1333 17.5083 15.6167 16.15C15.5333 15.3667 15.0333 14.6 14.1417 14C11.8583 12.4833 8.125 12.4833 5.85834 14C4.96667 14.6 4.46667 15.3667 4.38333 16.15Z" stroke="#929292" stroke-width="1.3" stroke-linecap="round" stroke-linejoin="round"/>
<path d="M10 18.3333C5.39763 18.3333 1.66667 14.6024 1.66667 10C1.66667 5.39763 5.39763 1.66667 10 1.66667C14.6024 1.66667 18.3333 5.39763 18.3333 10C18.3333 14.6024 14.6024 18.3333 10 18.3333Z" stroke="#929292" stroke-width="1.3" stroke-linecap="round" stroke-linejoin="round"/>
</svg>
