<svg width="22" height="22" viewBox="0 0 22 22" fill="none" xmlns="http://www.w3.org/2000/svg">
<g clip-path="url(#clip0)">
<path d="M8.25773 20.1397C8.7625 20.1397 9.17171 19.7305 9.17171 19.2257C9.17171 18.721 8.7625 18.3118 8.25773 18.3118C7.75295 18.3118 7.34375 18.721 7.34375 19.2257C7.34375 19.7305 7.75295 20.1397 8.25773 20.1397Z" stroke="#252525" stroke-width="1.3" stroke-linecap="round" stroke-linejoin="round"/>
<path d="M18.3105 20.1397C18.8152 20.1397 19.2244 19.7305 19.2244 19.2257C19.2244 18.721 18.8152 18.3118 18.3105 18.3118C17.8057 18.3118 17.3965 18.721 17.3965 19.2257C17.3965 19.7305 17.8057 20.1397 18.3105 20.1397Z" stroke="#252525" stroke-width="1.3" stroke-linecap="round" stroke-linejoin="round"/>
<path d="M0.947266 0.946289H4.60318L7.05264 13.1845C7.13622 13.6053 7.36514 13.9832 7.69932 14.2523C8.03351 14.5213 8.45167 14.6642 8.8806 14.656H17.7645C18.1934 14.6642 18.6116 14.5213 18.9457 14.2523C19.2799 13.9832 19.5088 13.6053 19.5924 13.1845L21.0548 5.51618H5.51716" stroke="#252525" stroke-width="1.3" stroke-linecap="round" stroke-linejoin="round"/>
</g>
<defs>
<clipPath id="clip0">
<rect width="21.9355" height="21.9355" fill="none" transform="translate(0.03125 0.0322266)"/>
</clipPath>
</defs>
</svg>
