<svg width="29" height="29" viewBox="0 0 29 29" fill="none" xmlns="http://www.w3.org/2000/svg">
<path d="M14.9102 0.309204C7.17891 0.309204 0.910156 6.57795 0.910156 14.3092C0.910156 22.0405 7.17891 28.3092 14.9102 28.3092C22.6414 28.3092 28.9102 22.0405 28.9102 14.3092C28.9102 6.57795 22.6414 0.309204 14.9102 0.309204ZM21.6383 10.8623C21.6477 11.0092 21.6477 11.1623 21.6477 11.3123C21.6477 15.8998 18.1539 21.1842 11.7695 21.1842C9.80078 21.1842 7.97578 20.6123 6.43828 19.628C6.71953 19.6592 6.98828 19.6717 7.27578 19.6717C8.90078 19.6717 10.3945 19.1217 11.5852 18.1905C10.0602 18.1592 8.77891 17.1592 8.34141 15.7842C8.87578 15.8623 9.35703 15.8623 9.90703 15.7217C9.1218 15.5622 8.41602 15.1357 7.90958 14.5148C7.40315 13.8938 7.1273 13.1167 7.12891 12.3155V12.2717C7.58828 12.5311 8.12891 12.6905 8.69453 12.7123C8.21904 12.3954 7.82909 11.9661 7.55925 11.4624C7.28942 10.9587 7.14804 10.3962 7.14766 9.82483C7.14766 9.17795 7.31641 8.58733 7.61953 8.07483C8.4911 9.14776 9.57869 10.0253 10.8116 10.6503C12.0445 11.2754 13.3952 11.6341 14.7758 11.703C14.2852 9.34358 16.0477 7.4342 18.1664 7.4342C19.1664 7.4342 20.0664 7.85295 20.7008 8.52795C21.4852 8.38108 22.2352 8.08733 22.9039 7.69358C22.6445 8.4967 22.1008 9.17483 21.3789 9.60295C22.0789 9.52796 22.7539 9.3342 23.3789 9.06233C22.907 9.75608 22.3164 10.3717 21.6383 10.8623Z" fill="#55ACEE"/>
</svg>
