<svg width="17" height="13" viewBox="0 0 17 13" fill="none" xmlns="http://www.w3.org/2000/svg">
<path d="M6.84431 8.46078V3.96971L11.1657 6.22864L6.84431 8.46078ZM8.49609 0.764352C5.13002 0.764352 2.89788 0.925066 2.89788 0.925066C2.58538 0.96078 1.89788 0.96078 1.29074 1.60364C1.29074 1.60364 0.799665 2.08578 0.656808 3.19292C0.487165 4.48757 0.496094 5.78221 0.496094 5.78221V6.99649C0.496094 6.99649 0.487165 8.29114 0.656808 9.58578C0.799665 10.684 1.29074 11.1751 1.29074 11.1751C1.89788 11.809 2.70145 11.7911 3.05859 11.8536C3.05859 11.8536 4.33538 11.9786 8.49609 12.0144C11.8622 12.0144 14.0943 11.8447 14.0943 11.8447C14.4068 11.809 15.0943 11.809 15.7015 11.1751C15.7015 11.1751 16.1925 10.684 16.3354 9.58578C16.505 8.29114 16.4961 6.99649 16.4961 6.99649V5.78221C16.4961 5.78221 16.505 4.48757 16.3354 3.19292C16.1925 2.08578 15.7015 1.60364 15.7015 1.60364C15.0943 0.96078 14.4068 0.96078 14.0943 0.925066C14.0943 0.925066 11.8622 0.764352 8.49609 0.764352Z" fill="#555555"/>
</svg>
